<svg width="130" height="73" viewBox="0 0 130 73" fill="none" xmlns="http://www.w3.org/2000/svg">
<g id="Group 37992">
<g id="Group">
<path id="Vector" d="M109.382 25.9146C109.04 25.345 108.67 24.8039 108.243 24.2913C106.307 21.9562 103.687 20.4184 100.326 19.678C99.8992 19.5926 99.3012 19.4502 98.5323 19.2793C93.6911 18.2256 91.242 17.0296 91.242 15.6627C91.242 14.9222 91.5837 14.3527 92.2387 13.954C92.8937 13.5553 93.8335 13.3275 95.058 13.3275C96.6527 13.3275 98.3044 13.6407 99.9846 14.2957C101.693 14.9507 103.373 15.8905 105.054 17.1435L110.379 4.41402C107.645 2.93319 104.94 1.82256 102.234 1.11062C99.529 0.370208 96.7667 0 93.9759 0C87.9101 0 83.012 1.6517 79.253 4.92662C75.5224 8.20153 73.6429 12.4447 73.6429 17.6846C73.6429 21.0449 74.6111 23.8642 76.5476 26.1139C78.4841 28.3636 81.2464 29.9584 84.8915 30.8412C85.518 30.9836 86.3724 31.1544 87.483 31.4107C90.9288 32.1227 92.6374 33.1479 92.6374 34.5148C92.6374 35.2837 92.2957 35.9102 91.6122 36.3658C90.9288 36.8215 89.989 37.0493 88.7929 37.0493C87.0843 37.0493 85.2617 36.6506 83.2968 35.8248C81.3318 35.0274 79.1106 33.7459 76.6045 31.9803L71.0229 45.5926C74.2124 47.4151 77.4019 48.782 80.5914 49.6933C83.7809 50.6046 86.9704 51.0602 90.1599 51.0602C93.6056 51.0602 96.7097 50.5192 99.4435 49.4655L109.382 25.9146Z" fill="#0C3A5C"/>
<path id="Vector_2" d="M69.0011 23.1238C68.9726 22.6396 68.9441 21.8992 68.8872 20.9025H42.0044V32.322H49.6079C49.4085 33.575 48.782 34.5717 47.7283 35.2837C46.6747 35.9956 45.3078 36.3373 43.6276 36.3373C40.7798 36.3373 38.5871 35.3976 37.0493 33.4896C35.5115 31.5816 34.7141 28.9332 34.7141 25.4874C34.7141 22.1555 35.483 19.5071 37.0208 17.5422C38.5586 15.5772 40.6374 14.5805 43.2289 14.5805C44.7097 14.5805 46.0197 14.9222 47.1873 15.5772C48.3264 16.2322 49.3231 17.2574 50.1489 18.5958L65.7262 12.8149C63.2771 8.60022 60.0876 5.41073 56.2147 3.21796C52.3702 1.08215 47.9277 0 42.9441 0C40.0964 0 37.4195 0.370208 34.885 1.11062L19.5925 37.2771C20.7886 39.6692 22.3549 41.8335 24.2913 43.77C26.7404 46.1621 29.5312 47.9847 32.6922 49.2092C35.8532 50.4337 39.2705 51.0602 42.9441 51.0602C47.9277 51.0602 52.3702 49.9496 56.3001 47.7568C60.23 45.5641 63.4195 42.3746 65.897 38.2169C66.9222 36.4513 67.6911 34.4009 68.2322 32.0942C68.7733 29.7875 69.0295 27.253 69.0295 24.4622C69.0295 24.035 69.0295 23.6079 69.0011 23.1238Z" fill="#0C3A5C"/>
<path id="Vector_3" d="M51.9147 62.85C50.7471 62.85 49.9497 63.7613 49.9497 64.9004V64.9288C49.9497 66.0679 50.7756 66.9792 51.9147 66.9792C53.0822 66.9792 53.8796 66.0679 53.8796 64.9288V64.9004C53.8796 63.7897 53.0822 62.85 51.9147 62.85Z" fill="#E84910"/>
<path id="Vector_4" d="M83.9519 65.5268H85.9738L84.9486 63.1917L83.9519 65.5268Z" fill="#E84910"/>
<path id="Vector_5" d="M14.0963 62.85C12.9287 62.85 12.1313 63.7613 12.1313 64.9004V64.9288C12.1313 66.0679 12.9572 66.9792 14.0963 66.9792C15.2354 66.9792 16.0612 66.0679 16.0612 64.9288V64.9004C16.0612 63.7897 15.2354 62.85 14.0963 62.85Z" fill="#E84910"/>
<path id="Vector_6" d="M62.195 62.9354H61.0559V66.8938H62.195C63.4195 66.8938 64.2169 66.068 64.2169 64.9289V64.9004C64.2169 63.7897 63.4195 62.9354 62.195 62.9354Z" fill="#E84910"/>
<path id="Vector_7" d="M21.6713 65.3275H20.0481V66.9223H21.7567C22.4687 66.9223 22.8674 66.6375 22.8674 66.1249V66.0964C22.8674 65.6123 22.4687 65.3275 21.6713 65.3275Z" fill="#E84910"/>
<path id="Vector_8" d="M22.5541 63.6758C22.5541 63.1916 22.1839 62.9069 21.5289 62.9069H20.0481V64.4447H21.4435C22.0985 64.4447 22.5541 64.1884 22.5541 63.6758Z" fill="#E84910"/>
<path id="Vector_9" d="M38.9572 63.9037C38.9572 63.2772 38.5015 62.9354 37.7611 62.9354H36.2803V64.9004H37.7896C38.473 64.9004 38.9572 64.5017 38.9572 63.9037Z" fill="#E84910"/>
<path id="Vector_10" d="M0 72.8455H130V56.8696H0V72.8455ZM9.31216 67.0076C8.74261 67.4918 7.91676 67.9189 6.89157 67.9189C5.069 67.9189 3.87295 66.609 3.87295 64.9288V64.9003C3.87295 63.2771 5.12596 61.8817 6.86309 61.8817C7.88828 61.8817 8.48631 62.1665 9.11281 62.6791L8.45783 63.4479C8.00219 63.0777 7.57503 62.8214 6.83461 62.8214C5.75246 62.8214 4.95509 63.7612 4.95509 64.8718V64.9003C4.95509 66.0964 5.75246 66.9792 6.92004 66.9792C7.46112 66.9792 7.97371 66.8083 8.31544 66.552V65.4698H6.83461V64.587H9.31216V67.0076ZM17.1435 64.9003C17.1435 66.5235 15.8905 67.9189 14.0964 67.9189C12.3023 67.9189 11.0493 66.552 11.0493 64.9288V64.9003C11.0493 63.2771 12.3023 61.8817 14.0964 61.8817C15.8905 61.9102 17.1435 63.2486 17.1435 64.9003ZM23.8927 66.2387C23.8927 67.2639 23.0383 67.8335 21.7284 67.8335H19.023V62.0241H21.6429C22.2979 62.0241 22.839 62.1949 23.1522 62.5367C23.4085 62.793 23.5509 63.1062 23.5509 63.5049V63.5334C23.5509 64.2453 23.1522 64.6155 22.7251 64.8433C23.4085 65.0427 23.8927 65.4129 23.8927 66.2387ZM26.7974 67.8335H25.7722V62.0241H26.7974V67.8335ZM33.3472 67.8335H28.9901V62.0241H33.3187V62.9353H30.0153V64.4447H32.92V65.3559H30.0153V66.9222H33.3472V67.8335ZM38.9573 67.8335L37.5334 65.8116H36.2519V67.8335H35.2267V62.0241H37.8182C38.5586 62.0241 39.1281 62.2519 39.4984 62.5936C39.8116 62.9069 39.9825 63.334 39.9825 63.8466V63.8751C39.9825 64.8433 39.4129 65.4129 38.6156 65.6407L40.1818 67.8335H38.9573ZM46.988 67.8335H46.1336L42.9157 63.7042V67.8335H41.9189V62.0241H42.8587L45.9628 66.0394V62.0241H46.9595V67.8335H46.988ZM54.9617 64.9003C54.9617 66.5235 53.7087 67.9189 51.9146 67.9189C50.1205 67.9189 48.8675 66.552 48.8675 64.9288V64.9003C48.8675 63.2771 50.1205 61.8817 51.9146 61.8817C53.7087 61.9102 54.9617 63.2486 54.9617 64.9003ZM65.299 64.9003C65.299 66.5235 64.046 67.805 62.195 67.805H60.0307V61.9956H62.195C64.0175 61.9956 65.299 63.2486 65.299 64.9003ZM71.5356 67.8335H67.1785V62.0241H71.4786V62.9353H68.1752V64.4447H71.08V65.3559H68.1752V66.9222H71.5071V67.8335H71.5356ZM80.7054 66.1818C80.7054 67.2639 79.851 67.9189 78.6265 67.9189C77.7437 67.9189 76.8894 67.6057 76.2059 66.9792L76.8324 66.2387C77.402 66.7229 77.943 67.0076 78.655 67.0076C79.2815 67.0076 79.6802 66.6944 79.6802 66.2672V66.2387C79.6802 65.8116 79.4524 65.6122 78.3702 65.3559C77.1457 65.0427 76.4337 64.701 76.4337 63.6188V63.5903C76.4337 62.5936 77.2596 61.9102 78.4272 61.9102C79.2815 61.9102 79.9365 62.1665 80.5345 62.6506L79.9934 63.4195C79.4808 63.0208 78.9398 62.8214 78.4272 62.8214C77.8291 62.8214 77.4874 63.1347 77.4874 63.5049V63.5334C77.4874 63.989 77.7437 64.1884 78.8828 64.4447C80.0504 64.7579 80.7054 65.1851 80.7054 66.1818ZM86.9135 67.8335L86.3154 66.4381H83.5531L82.9551 67.8335H81.9014L84.4644 61.9671H85.4042L87.9671 67.8335H86.9135ZM94.7448 67.8335H93.8905L90.6725 63.7042V67.8335H89.6758V62.0241H90.6156L93.7196 66.0394V62.0241H94.7163V67.8335H94.7448ZM101.209 62.9638H99.3582V67.8335H98.333V62.9638H96.4819V62.0241H101.209V62.9638ZM104.028 67.8335H103.003V62.0241H104.028V67.8335ZM110.721 67.8335L110.123 66.4381H107.36L106.762 67.8335H105.709L108.272 61.9671H109.211L111.774 67.8335H110.721ZM118.296 67.0076C117.726 67.4918 116.9 67.9189 115.875 67.9189C114.053 67.9189 112.857 66.609 112.857 64.9288V64.9003C112.857 63.2771 114.11 61.8817 115.847 61.8817C116.872 61.8817 117.47 62.1665 118.068 62.6791L117.413 63.4479C116.957 63.0777 116.53 62.8214 115.79 62.8214C114.708 62.8214 113.91 63.7612 113.91 64.8718V64.9003C113.91 66.0964 114.708 66.9792 115.875 66.9792C116.416 66.9792 116.929 66.8083 117.271 66.552V65.4698H115.79V64.587H118.267V67.0076H118.296ZM126.099 64.9003C126.099 66.5235 124.846 67.9189 123.051 67.9189C121.257 67.9189 120.004 66.552 120.004 64.9288V64.9003C120.004 63.2771 121.257 61.8817 123.051 61.8817C124.874 61.9102 126.099 63.2486 126.099 64.9003Z" fill="#E84910"/>
<path id="Vector_11" d="M107.759 65.5268H109.781L108.756 63.1917L107.759 65.5268Z" fill="#E84910"/>
<path id="Vector_12" d="M123.051 62.85C121.884 62.85 121.086 63.7613 121.086 64.9004V64.9288C121.086 66.0679 121.912 66.9792 123.051 66.9792C124.219 66.9792 125.016 66.0679 125.016 64.9288V64.9004C125.045 63.7897 124.219 62.85 123.051 62.85Z" fill="#E84910"/>
</g>
</g>
</svg>
