<svg width="92" height="112" viewBox="0 0 92 112" fill="none" xmlns="http://www.w3.org/2000/svg">
<g id="Group">
<g id="Group_2">
<path id="Vector" d="M11.9193 76.6819C10.1094 76.6819 8.56426 76.4171 7.23988 75.9315C5.95965 75.4017 4.94429 74.6954 4.19381 73.68C3.44333 72.7088 2.91358 71.561 2.60456 70.2808C2.29554 69.0005 2.11896 67.4996 2.11896 65.7338V54.1234C2.11896 52.3576 2.29554 50.8124 2.60456 49.4881C2.91358 48.1637 3.44333 47.06 4.19381 46.0447C4.94429 45.0735 5.95965 44.323 7.23988 43.8374C8.52011 43.3518 10.0652 43.0869 11.9193 43.0869C13.6852 43.0869 15.1861 43.3076 16.4222 43.7491C17.6583 44.1906 18.6295 44.8527 19.3359 45.7357C20.0422 46.6186 20.5278 47.5898 20.8368 48.6934C21.1458 49.7971 21.2783 51.0773 21.2783 52.5341V55.4036H14.2149V52.1368C14.2149 51.6071 14.2149 51.2539 14.2149 50.989C14.2149 50.7242 14.1708 50.371 14.0825 49.9737C13.9942 49.5764 13.9059 49.2673 13.7293 49.0466C13.5969 48.8259 13.332 48.6493 13.023 48.4727C12.714 48.2961 12.3167 48.2078 11.8752 48.2078C11.4337 48.2078 11.0364 48.2961 10.7274 48.4727C10.4184 48.6493 10.1977 48.8259 10.0211 49.0466C9.84449 49.2673 9.71205 49.5764 9.62376 49.9737C9.53547 50.371 9.44717 50.7242 9.44717 51.0773C9.44717 51.3863 9.40303 51.8278 9.40303 52.3134V67.5437C9.40303 68.8681 9.57961 69.8393 9.93278 70.5457C10.2859 71.252 10.904 71.561 11.8752 71.561C12.3167 71.561 12.6698 71.4727 12.9788 71.2961C13.2879 71.1196 13.5086 70.943 13.6852 70.7222C13.8618 70.5015 13.9501 70.1925 14.0383 69.7952C14.1266 69.3979 14.1708 69.0447 14.1708 68.7357C14.1708 68.4267 14.1708 68.0293 14.1708 67.5437V64.1004H21.2341V66.9257C21.2341 68.0735 21.1458 69.133 20.9693 70.1042C20.7927 71.0313 20.4836 71.9583 20.0422 72.753C19.6007 73.5917 19.0268 74.2981 18.3205 74.8278C17.6142 75.4017 16.7312 75.8432 15.6276 76.1522C14.6122 76.5495 13.332 76.6819 11.9193 76.6819Z" fill="#054C96"/>
</g>
<g id="Group_3">
<path id="Vector_2" d="M33.4625 71.3837C33.7716 71.5603 34.1247 71.6045 34.5662 71.6045C35.0076 71.6045 35.3608 71.5162 35.6698 71.3837C35.9788 71.2072 36.2437 71.0306 36.3762 70.8098C36.5527 70.5891 36.6852 70.2801 36.7735 69.9269C36.8618 69.5738 36.9501 69.2206 36.9501 68.9116C36.9942 68.6026 36.9942 68.2052 36.9942 67.7638V52.092C36.9942 51.6505 36.9942 51.2974 36.9501 50.9442C36.9059 50.6352 36.8618 50.282 36.7735 49.9288C36.6852 49.5757 36.5527 49.2666 36.3762 49.0459C36.1996 48.8252 35.9788 48.6486 35.6698 48.472C35.3608 48.3396 34.9635 48.2513 34.5662 48.2513C34.1247 48.2513 33.7716 48.3396 33.4625 48.472C33.1535 48.6045 32.9328 48.8252 32.7562 49.0018C32.5796 49.2225 32.4472 49.5315 32.3589 49.8847C32.2706 50.282 32.2264 50.591 32.1823 50.9C32.1382 51.2091 32.1382 51.5622 32.1382 52.0478V67.6755C32.1382 68.1169 32.1382 68.5143 32.1823 68.8233C32.1823 69.1323 32.2706 69.4855 32.3589 69.8386C32.4472 70.1918 32.5796 70.5008 32.7562 70.7215C32.9328 71.0306 33.1977 71.2072 33.4625 71.3837ZM34.6103 76.6812C32.8003 76.6812 31.2552 76.4605 29.975 75.9749C28.6948 75.4893 27.6794 74.783 26.9289 73.8118C26.1785 72.8406 25.6046 71.7369 25.2955 70.4567C24.9424 69.1764 24.8099 67.6755 24.8099 65.9097V53.8578C24.8099 52.092 24.9865 50.591 25.2955 49.3108C25.6487 48.0306 26.1785 46.9269 26.9289 45.9557C27.6794 45.0286 28.6948 44.3223 29.975 43.8367C31.2552 43.3511 32.8003 43.1304 34.6103 43.1304C38.142 43.1304 40.6583 44.0133 42.2034 45.8233C43.7485 47.6333 44.499 50.282 44.499 53.8578V65.9097C44.499 69.4413 43.7485 72.1342 42.2034 73.9442C40.6583 75.7983 38.142 76.6812 34.6103 76.6812Z" fill="#054C96"/>
</g>
<g id="Group_4">
<path id="Vector_3" d="M56.0212 57.478H57.8753C59.3321 57.478 60.3916 57.0807 60.9655 56.3302C61.5835 55.5797 61.8484 54.432 61.8484 52.8868C61.8484 51.3859 61.5835 50.2381 61.0538 49.5318C60.524 48.7813 59.5528 48.4281 58.2284 48.4281H56.0212V57.478ZM48.8254 76.24V43.6162H57.6987C59.0672 43.6162 60.3033 43.7045 61.3628 43.8369C62.4223 44.0135 63.4377 44.2784 64.3647 44.6757C65.2918 45.073 66.0864 45.6028 66.6603 46.2208C67.2784 46.883 67.7198 47.6776 68.073 48.693C68.4262 49.7083 68.6027 50.9003 68.6027 52.2247C68.6027 54.3437 68.2937 56.0653 67.7198 57.3897C67.1459 58.7141 66.0864 59.6853 64.5855 60.4358L69.0883 76.24H61.6277L58.0519 61.6277H56.0212V76.24H48.8254Z" fill="#054C96"/>
</g>
<g id="Group_5">
<path id="Vector_4" d="M72.8848 76.24V43.6162H87.5413V48.5605H80.0806V56.5951H85.7754V61.6277H80.0806V71.384H87.6296V76.24H72.8848Z" fill="#054C96"/>
</g>
<g id="Group_6">
<path id="Vector_5" d="M2.82534 93.192C2.38388 93.192 2.03071 93.1479 1.67754 93.0155C1.36852 92.9272 1.0595 92.7506 0.882918 92.574C0.662188 92.3974 0.485605 92.1325 0.353167 91.8677C0.220729 91.5586 0.132438 91.2938 0.0882918 90.9406C0.0441459 90.6316 0 90.2343 0 89.837V86.3494C0 85.908 0.0441459 85.5548 0.0882918 85.2016C0.132438 84.8485 0.264875 84.5394 0.397313 84.2746C0.529751 84.0097 0.706334 83.7448 0.927064 83.5682C1.14779 83.3917 1.41267 83.2592 1.72169 83.1268C2.03071 83.0385 2.42802 82.9502 2.86948 82.9502C3.35509 82.9502 3.79655 82.9943 4.14971 83.1268C4.50288 83.2592 4.76776 83.4358 4.98849 83.7007C5.20921 83.9656 5.34165 84.2746 5.42994 84.5836C5.51824 84.9368 5.56238 85.3341 5.56238 85.7755V86.6143H3.84069V85.7755C3.84069 85.2899 3.79655 84.9368 3.7524 84.7602C3.66411 84.407 3.39923 84.2304 3.00192 84.2304H2.91363C2.78119 84.2304 2.64875 84.2304 2.51632 84.2746C2.38388 84.3187 2.29559 84.3629 2.25144 84.4512C2.20729 84.5395 2.119 84.6277 2.07486 84.716C2.03071 84.8043 1.98656 84.9368 1.98656 85.0692C1.94242 85.2016 1.94242 85.3341 1.94242 85.4665C1.94242 85.599 1.94242 85.7314 1.94242 85.908V90.1018C1.94242 90.6757 2.03071 91.1172 2.16315 91.3379C2.29559 91.6028 2.56046 91.6911 2.95777 91.6911C3.09021 91.6911 3.1785 91.6911 3.31094 91.6469C3.39923 91.6028 3.48752 91.6028 3.57582 91.5145C3.66411 91.4704 3.70825 91.4262 3.7524 91.3379C3.79655 91.2496 3.84069 91.1613 3.84069 91.1172C3.84069 91.0289 3.88484 90.9406 3.88484 90.8082C3.88484 90.6757 3.88484 90.5874 3.88484 90.455C3.88484 90.3667 3.88484 90.2343 3.88484 90.0577V89.1748H5.60653V90.0135C5.60653 90.3667 5.56238 90.7199 5.51824 91.0289C5.47409 91.3379 5.3858 91.6028 5.25336 91.8677C5.12092 92.1325 4.98849 92.3533 4.76776 92.5299C4.59117 92.7064 4.3263 92.8389 4.01728 92.9272C3.61996 93.1479 3.22265 93.192 2.82534 93.192Z" fill="#054C96"/>
</g>
<g id="Group_7">
<path id="Vector_6" d="M9.0057 91.7795C9.13814 91.8236 9.27058 91.8678 9.44716 91.8678C9.62375 91.8678 9.75618 91.8236 9.88862 91.7795C10.0211 91.7353 10.1094 91.647 10.1976 91.5587C10.2859 91.4704 10.3301 91.3821 10.3742 91.2497C10.4184 91.1173 10.4625 90.9848 10.4625 90.8524C10.4625 90.72 10.4625 90.5434 10.4625 90.3668V85.8639C10.4625 85.6432 10.4625 85.4225 10.4184 85.2459C10.4184 85.0693 10.3301 84.9368 10.2859 84.8044C10.1976 84.672 10.1094 84.5395 9.97691 84.4954C9.84448 84.4071 9.66789 84.4071 9.44716 84.4071C9.22643 84.4071 9.04985 84.4512 8.91741 84.4954C8.78497 84.5837 8.65254 84.672 8.60839 84.8044C8.5201 84.9368 8.47595 85.1134 8.47595 85.2459C8.43181 85.4225 8.43181 85.599 8.43181 85.8639V90.3668C8.43181 90.5434 8.43181 90.72 8.47595 90.8524C8.47595 90.9848 8.5201 91.1173 8.56424 91.2497C8.60839 91.3821 8.65254 91.5146 8.74083 91.5587C8.78497 91.647 8.91741 91.7353 9.0057 91.7795ZM9.49131 93.1921C8.47595 93.1921 7.72547 92.9272 7.28401 92.3534C6.84256 91.7795 6.62183 90.9848 6.62183 89.9253V86.2612C6.62183 85.7315 6.66597 85.29 6.75426 84.8927C6.84256 84.4954 7.01914 84.1864 7.23987 83.8773C7.4606 83.6125 7.76962 83.3917 8.12279 83.2593C8.47595 83.1269 8.96156 83.0386 9.44716 83.0386C10.4625 83.0386 11.213 83.3034 11.6545 83.8773C12.0959 84.4071 12.3166 85.2459 12.3166 86.3054V89.9695C12.3166 90.4992 12.2725 90.9407 12.1842 91.338C12.0959 91.7353 11.9193 92.0885 11.6986 92.3534C11.4779 92.6624 11.1689 92.8831 10.8157 93.0155C10.4625 93.1038 9.97691 93.1921 9.49131 93.1921Z" fill="#054C96"/>
</g>
<g id="Group_8">
<path id="Vector_7" d="M13.6852 93.0598V83.127H14.9213L17.3493 88.7776V83.127H18.8503V93.0598H17.6584L15.2303 87.1442V93.0598H13.6852Z" fill="#054C96"/>
</g>
<g id="Group_9">
<path id="Vector_8" d="M22.8675 93.192C21.1017 93.192 20.1746 92.1767 20.1305 90.146L21.7197 89.7928C21.7639 91.1172 22.1171 91.7794 22.8675 91.7794C23.1324 91.7794 23.3531 91.6911 23.4856 91.5145C23.618 91.3379 23.7063 91.1172 23.7063 90.8523C23.7063 90.5874 23.6622 90.3226 23.5739 90.1018C23.4856 89.8811 23.3531 89.6604 23.2207 89.5279C23.0883 89.3955 22.9117 89.2189 22.6468 88.9982L21.3224 87.8504C20.9251 87.4972 20.6602 87.1441 20.4837 86.7909C20.3071 86.4377 20.2188 85.9963 20.2188 85.4224C20.2188 84.6277 20.4395 84.0538 20.881 83.6124C21.3224 83.1709 21.9405 82.9502 22.7351 82.9502C23.0883 82.9502 23.4414 82.9943 23.7063 83.0826C23.9712 83.1709 24.2361 83.3034 24.4126 83.48C24.5892 83.6565 24.7658 83.8331 24.8541 84.0538C24.9865 84.2746 25.0748 84.5395 25.119 84.8043C25.1631 85.0692 25.2073 85.3341 25.2514 85.6431L23.7063 85.9521C23.7063 85.7314 23.6622 85.599 23.6622 85.4224C23.6622 85.2899 23.618 85.1133 23.5739 84.9809C23.5297 84.8485 23.4856 84.716 23.3973 84.6277C23.309 84.5394 23.2207 84.4512 23.1324 84.407C23 84.3629 22.8675 84.3187 22.7351 84.3187C22.4702 84.3187 22.2495 84.407 22.1171 84.5836C21.9846 84.7602 21.8963 84.9809 21.8963 85.2458C21.8963 85.5548 21.9405 85.8197 22.0729 86.0404C22.2054 86.2611 22.3819 86.4819 22.6468 86.7026L23.927 87.8504C24.1478 88.027 24.3244 88.2477 24.5009 88.4243C24.6775 88.6009 24.81 88.8216 24.9424 89.0423C25.0748 89.2631 25.2073 89.5279 25.2956 89.837C25.3839 90.1018 25.3839 90.4109 25.3839 90.7199C25.3839 91.4262 25.1631 92.0442 24.7217 92.4857C24.1919 92.9713 23.618 93.192 22.8675 93.192Z" fill="#054C96"/>
</g>
<g id="Group_10">
<path id="Vector_9" d="M26.3992 93.0598V83.127H30.5931V84.4072H28.2092V87.2325H30.1075V88.5569H28.2092V91.8237H30.5931V93.0598H26.3992Z" fill="#054C96"/>
</g>
<g id="Group_11">
<path id="Vector_10" d="M31.0345 93.2805V92.0003C31.5643 92.0003 31.9175 91.912 32.094 91.7795C32.2706 91.603 32.3589 91.2939 32.3589 90.7642V83.127H34.1689V90.8083C34.1689 91.2498 34.1248 91.603 34.0806 91.912C33.9923 92.221 33.904 92.4859 33.7274 92.6625C33.5509 92.8832 33.3301 93.0156 33.0211 93.1481C32.7121 93.2364 32.3589 93.2805 31.9175 93.2805H31.0345Z" fill="#054C96"/>
</g>
<g id="Group_12">
<path id="Vector_11" d="M37.9214 91.7795C38.0538 91.8236 38.1862 91.8678 38.3628 91.8678C38.5394 91.8678 38.6719 91.8236 38.8043 91.7795C38.9367 91.7353 39.025 91.647 39.1133 91.5587C39.2016 91.4704 39.2457 91.3821 39.2899 91.2497C39.334 91.1173 39.3782 90.9848 39.3782 90.8524C39.3782 90.72 39.3782 90.5434 39.3782 90.3668V85.8639C39.3782 85.6432 39.3782 85.4225 39.334 85.2459C39.2899 85.0693 39.2457 84.9368 39.2016 84.8044C39.1133 84.672 39.025 84.5395 38.8926 84.4954C38.7601 84.4071 38.5836 84.4071 38.3628 84.4071C38.1421 84.4071 37.9655 84.4512 37.8331 84.4954C37.7006 84.5837 37.5682 84.672 37.5241 84.8044C37.4358 84.9368 37.3916 85.1134 37.3916 85.2459C37.3916 85.4225 37.3475 85.599 37.3475 85.8639V90.3668C37.3475 90.5434 37.3475 90.72 37.3916 90.8524C37.3916 90.9848 37.4358 91.1173 37.4799 91.2497C37.5241 91.3821 37.5682 91.5146 37.6565 91.5587C37.7006 91.647 37.7889 91.7353 37.9214 91.7795ZM38.3628 93.1921C37.3475 93.1921 36.597 92.9272 36.1555 92.3534C35.7141 91.7795 35.4933 90.9848 35.4933 89.9253V86.2612C35.4933 85.7315 35.5375 85.29 35.6258 84.8927C35.7141 84.4954 35.8907 84.1864 36.1114 83.8773C36.3321 83.6125 36.6411 83.3917 36.9943 83.2593C37.3475 83.1269 37.8331 83.0386 38.3187 83.0386C39.334 83.0386 40.0845 83.3034 40.526 83.8773C40.9674 84.4071 41.1882 85.2459 41.1882 86.3054V89.9695C41.1882 90.4992 41.144 90.9407 41.0557 91.338C40.9674 91.7353 40.7909 92.0885 40.5701 92.3534C40.3494 92.6624 40.0404 92.8831 39.6872 93.0155C39.334 93.1038 38.8926 93.1921 38.3628 93.1921Z" fill="#054C96"/>
</g>
<g id="Group_13">
<path id="Vector_12" d="M47.3686 87.365H47.81C48.3398 87.365 48.7371 87.2325 48.9578 87.0118C49.1786 86.7911 49.311 86.3937 49.311 85.8198C49.311 85.2901 49.2227 84.8928 49.002 84.6721C48.8254 84.4513 48.4281 84.3189 47.9425 84.3189H47.4127L47.3686 87.365ZM45.5586 93.0598V83.127H47.8542C48.3839 83.127 48.8254 83.1711 49.2227 83.2594C49.5759 83.3477 49.929 83.4801 50.1939 83.7009C50.4588 83.9216 50.6795 84.1865 50.812 84.5396C50.9444 84.8928 51.0327 85.2901 51.0327 85.8198C51.0327 86.4379 50.9444 86.9676 50.7678 87.365C50.5912 87.7623 50.2822 88.0713 49.8407 88.2479L51.2093 93.1481H49.3993L48.2073 88.601H47.4127V93.1481H45.5586V93.0598Z" fill="#054C96"/>
</g>
<g id="Group_14">
<path id="Vector_13" d="M52.357 93.0598V83.127H56.5509V84.4072H54.2111V87.2325H56.0652V88.5569H54.2111V91.8237H56.595V93.0598H52.357Z" fill="#054C96"/>
</g>
<g id="Group_15">
<path id="Vector_14" d="M60.1268 93.1918C59.1997 93.1918 58.4934 92.8828 58.0961 92.3089C57.6988 91.735 57.478 90.8521 57.478 89.7485V86.5258C57.478 85.9519 57.5222 85.4663 57.6105 85.0249C57.6988 84.6275 57.8312 84.2302 58.0519 83.9212C58.2727 83.6122 58.5375 83.3915 58.9348 83.2149C59.288 83.0383 59.7736 82.9941 60.3034 82.9941C61.2746 82.9941 61.9809 83.2149 62.4224 83.7005C62.8638 84.1861 63.0846 84.9366 63.0846 85.9078V86.3934H61.3629V85.8636C61.3629 85.6429 61.3629 85.4663 61.3629 85.3339C61.3629 85.2014 61.3187 85.069 61.2746 84.8924C61.2304 84.76 61.1863 84.6275 61.098 84.5834C61.0097 84.4951 60.9214 84.451 60.789 84.4068C60.6565 84.3627 60.5241 84.3185 60.3475 84.3185C60.2151 84.3185 60.0826 84.3185 59.9943 84.3627C59.906 84.4068 59.8178 84.451 59.7295 84.4951C59.6412 84.5392 59.597 84.6275 59.5529 84.7158C59.5087 84.8041 59.4646 84.8924 59.4205 84.9807C59.3763 85.069 59.3763 85.1573 59.3763 85.3339C59.3763 85.4663 59.3763 85.5988 59.3322 85.687C59.3322 85.7753 59.3322 85.9078 59.3322 86.0844V90.1016C59.3322 90.7197 59.4204 91.1611 59.5529 91.426C59.6853 91.6909 59.9943 91.8675 60.3917 91.8675C60.6124 91.8675 60.789 91.8233 60.9214 91.735C61.0538 91.6467 61.1863 91.5143 61.2746 91.3819C61.3629 91.2053 61.407 91.0287 61.4512 90.808C61.4953 90.5872 61.4953 90.3224 61.4953 90.0133V89.1746H60.4358V88.0268H63.1287V93.1035H61.9368L61.8043 92.0882C61.4953 92.8387 60.9214 93.1918 60.1268 93.1918Z" fill="#054C96"/>
</g>
<g id="Group_16">
<path id="Vector_15" d="M66.3513 83.127H64.5413V93.1039H66.3513V83.127Z" fill="#054C96"/>
</g>
<g id="Group_17">
<path id="Vector_16" d="M70.1037 91.7795C70.2361 91.8236 70.3686 91.8678 70.5451 91.8678C70.7217 91.8678 70.8542 91.8236 70.9866 91.7795C71.119 91.7353 71.2073 91.647 71.2956 91.5587C71.3839 91.4704 71.4281 91.3821 71.4722 91.2497C71.5163 91.1173 71.5605 90.9848 71.5605 90.8524C71.5605 90.72 71.5605 90.5434 71.5605 90.3668V85.8639C71.5605 85.6432 71.5605 85.4225 71.5163 85.2459C71.5163 85.0693 71.4281 84.9368 71.3839 84.8044C71.2956 84.672 71.2073 84.5395 71.0749 84.4954C70.9425 84.4071 70.7659 84.4071 70.5451 84.4071C70.3244 84.4071 70.1478 84.4512 70.0154 84.4954C69.883 84.5837 69.7947 84.672 69.7064 84.8044C69.6181 84.9368 69.5739 85.1134 69.5739 85.2459C69.5298 85.4225 69.5298 85.599 69.5298 85.8639V90.3668C69.5298 90.5434 69.5298 90.72 69.5298 90.8524C69.5298 90.9848 69.5739 91.1173 69.6181 91.2497C69.6622 91.3821 69.7064 91.5146 69.7947 91.5587C69.883 91.647 69.9712 91.7353 70.1037 91.7795ZM70.5451 93.1921C69.5298 93.1921 68.7793 92.9272 68.3378 92.3534C67.8964 91.7795 67.6757 90.9848 67.6757 89.9253V86.2612C67.6757 85.7315 67.7198 85.29 67.8081 84.8927C67.8964 84.4954 68.073 84.1864 68.2937 83.8773C68.5144 83.6125 68.8234 83.3917 69.1766 83.2593C69.5298 83.1269 70.0154 83.0386 70.501 83.0386C71.5163 83.0386 72.2668 83.3034 72.7083 83.8773C73.1497 84.4071 73.3705 85.2459 73.3705 86.3054V89.9695C73.3705 90.4992 73.3263 90.9407 73.238 91.338C73.1497 91.7353 72.9732 92.0885 72.7524 92.3534C72.5317 92.6624 72.2227 92.8831 71.8695 93.0155C71.5164 93.1038 71.0749 93.1921 70.5451 93.1921Z" fill="#054C96"/>
</g>
<g id="Group_18">
<path id="Vector_17" d="M74.739 93.0598V83.127H76.0192L78.4473 88.7776V83.127H79.9482V93.0598H78.7563L76.2841 87.1442V93.0598H74.739Z" fill="#054C96"/>
</g>
<g id="Group_19">
<path id="Vector_18" d="M83.2151 89.5722H84.5395L83.8773 85.4667L83.2151 89.5722ZM80.9195 93.0598L82.9502 83.127H84.8485L86.8792 93.0598H85.2016L84.8043 90.7642H83.0385L82.6412 93.0598H80.9195Z" fill="#054C96"/>
</g>
<g id="Group_20">
<path id="Vector_19" d="M87.8062 93.0598V83.127H89.6161V91.8237H92V93.0598H87.8062Z" fill="#054C96"/>
</g>
<g id="Group_21">
<path id="Vector_20" d="M2.91362 103.699C2.38387 103.699 1.98656 103.522 1.76583 103.213C1.5451 102.86 1.41266 102.374 1.41266 101.756V99.9021C1.41266 99.5931 1.4568 99.284 1.50095 99.0633C1.5451 98.8426 1.63339 98.6219 1.76583 98.4453C1.89826 98.2687 2.07485 98.1363 2.25143 98.048C2.47216 97.9597 2.73704 97.9155 3.04606 97.9155C3.61995 97.9155 4.01727 98.048 4.28214 98.3128C4.54702 98.5777 4.63531 99.0192 4.63531 99.5931V99.8579H3.57581V99.5489C3.57581 99.4165 3.57581 99.3282 3.57581 99.2399C3.57581 99.1516 3.57581 99.0633 3.53166 99.0192C3.48752 98.9309 3.48752 98.8867 3.44337 98.8426C3.39922 98.7984 3.35508 98.7543 3.26679 98.7543C3.17849 98.7102 3.0902 98.7102 3.00191 98.7102C2.91362 98.7102 2.86947 98.7102 2.78118 98.7543C2.73704 98.7984 2.64874 98.7984 2.6046 98.8426C2.56045 98.8867 2.51631 98.9309 2.51631 98.975C2.47216 99.0192 2.47216 99.0633 2.47216 99.1075C2.47216 99.1516 2.42801 99.2399 2.42801 99.284C2.42801 99.3723 2.42801 99.4165 2.42801 99.5048C2.42801 99.5489 2.42801 99.6372 2.42801 99.7255V102.021C2.42801 102.374 2.47216 102.639 2.56045 102.772C2.64874 102.948 2.82533 102.992 3.04606 102.992C3.17849 102.992 3.26679 102.948 3.35508 102.904C3.44337 102.86 3.48752 102.772 3.53166 102.683C3.57581 102.595 3.61995 102.463 3.61995 102.374C3.61995 102.242 3.6641 102.109 3.6641 101.933V101.447H3.04606V100.785H4.59116V103.699H3.92897L3.84068 103.125C3.70824 103.478 3.35508 103.699 2.91362 103.699Z" fill="#054C96"/>
</g>
<g id="Group_22">
<path id="Vector_21" d="M6.57772 103.037C6.66601 103.037 6.71015 103.037 6.7543 102.993C6.79845 102.949 6.84259 102.904 6.84259 102.816C6.88674 102.728 6.88674 102.684 6.88674 102.595C6.88674 102.551 6.88674 102.463 6.88674 102.331V100.874C6.88674 100.785 6.88674 100.697 6.88674 100.653C6.88674 100.609 6.88674 100.521 6.88674 100.476C6.88674 100.432 6.84259 100.344 6.84259 100.3C6.79845 100.256 6.79845 100.212 6.7543 100.212C6.71015 100.167 6.66601 100.167 6.57772 100.167C6.48942 100.167 6.44528 100.167 6.40113 100.212C6.35699 100.256 6.31284 100.3 6.31284 100.388C6.31284 100.476 6.26869 100.521 6.26869 100.609C6.26869 100.697 6.26869 100.785 6.26869 100.874V102.331C6.26869 102.419 6.26869 102.507 6.26869 102.551C6.26869 102.595 6.26869 102.684 6.26869 102.728C6.26869 102.772 6.31284 102.86 6.31284 102.904C6.35699 102.949 6.35699 102.993 6.40113 102.993C6.44528 103.037 6.48942 103.037 6.57772 103.037ZM6.57772 103.699C6.13626 103.699 5.82724 103.567 5.60651 103.346C5.38578 103.081 5.29749 102.728 5.29749 102.286V100.962C5.29749 100.521 5.42992 100.167 5.60651 99.9025C5.82724 99.6376 6.13626 99.5493 6.57772 99.5493C7.01917 99.5493 7.3282 99.6818 7.54893 99.9025C7.76965 100.167 7.85795 100.521 7.85795 100.962V102.286C7.85795 102.728 7.76965 103.081 7.54893 103.346C7.3282 103.567 7.01917 103.699 6.57772 103.699Z" fill="#054C96"/>
</g>
<g id="Group_23">
<path id="Vector_22" d="M9.93279 103.037C10.0211 103.037 10.0652 102.993 10.1094 102.993C10.1535 102.948 10.1977 102.904 10.1977 102.816C10.2418 102.728 10.2418 102.639 10.2418 102.595C10.2418 102.507 10.2418 102.419 10.2418 102.286V100.874C10.2418 100.785 10.2418 100.697 10.2418 100.609C10.2418 100.52 10.1977 100.476 10.1977 100.388C10.1535 100.3 10.1535 100.256 10.0652 100.256C10.0211 100.211 9.97694 100.211 9.88865 100.211C9.75621 100.211 9.62377 100.256 9.49133 100.388V102.948C9.62377 102.993 9.80035 103.037 9.93279 103.037ZM10.286 103.699C10.0211 103.699 9.75621 103.566 9.53548 103.346V103.655H8.56427V97.96H9.53548V99.9024C9.80036 99.6375 10.0652 99.5051 10.3743 99.5492C10.5067 99.5492 10.6391 99.5934 10.7716 99.6375C10.904 99.6817 10.9481 99.7699 11.0364 99.8582C11.0806 99.9465 11.1689 100.079 11.1689 100.211C11.213 100.344 11.2572 100.476 11.2572 100.565C11.2572 100.697 11.2572 100.785 11.2572 100.918V102.242C11.2572 102.463 11.2572 102.639 11.213 102.816C11.1689 102.993 11.1247 103.125 11.0364 103.302C10.9481 103.434 10.8599 103.566 10.7274 103.611C10.595 103.655 10.4625 103.699 10.286 103.699Z" fill="#054C96"/>
</g>
<g id="Group_24">
<path id="Vector_23" d="M11.9195 103.655H12.8907V99.5935H11.9195V103.655ZM11.9195 98.9313H12.8907V98.1367H11.9195V98.9313Z" fill="#054C96"/>
</g>
<g id="Group_25">
<path id="Vector_24" d="M14.5241 101.183H15.2304V100.785C15.2304 100.565 15.1863 100.432 15.1421 100.344C15.098 100.256 15.0097 100.211 14.8772 100.211C14.7448 100.211 14.6565 100.256 14.6124 100.344C14.5682 100.432 14.5241 100.609 14.5241 100.874V101.183ZM14.8772 103.699C14.4358 103.699 14.0826 103.567 13.8619 103.302C13.6411 103.037 13.5529 102.684 13.5529 102.154V101.006C13.5529 100.52 13.6411 100.123 13.8619 99.8582C14.0826 99.5934 14.3916 99.4609 14.8772 99.4609C15.1421 99.4609 15.3187 99.5051 15.4953 99.5492C15.6719 99.6375 15.8043 99.7258 15.8926 99.8582C15.9809 99.9907 16.025 100.167 16.0692 100.344C16.1133 100.52 16.1133 100.785 16.1133 101.05V101.58H14.4799V102.198C14.4799 102.286 14.4799 102.33 14.4799 102.419C14.4799 102.463 14.4799 102.507 14.4799 102.595C14.4799 102.684 14.4799 102.728 14.5241 102.728C14.5241 102.772 14.5682 102.816 14.5682 102.86C14.5682 102.904 14.6124 102.904 14.6565 102.948C14.7006 102.948 14.7448 102.993 14.7889 102.993C14.9214 102.993 15.0097 102.948 15.0538 102.86C15.098 102.772 15.1421 102.639 15.1421 102.463V102.242H16.0692V102.419C16.0692 102.86 15.9809 103.169 15.7602 103.39C15.6277 103.611 15.3187 103.699 14.8772 103.699Z" fill="#054C96"/>
</g>
<g id="Group_26">
<path id="Vector_25" d="M16.8196 103.655V99.5932H17.7909V100.211C17.9233 99.9463 18.0557 99.8139 18.1882 99.6815C18.3206 99.5932 18.453 99.5049 18.6296 99.5049C18.6738 99.5049 18.7179 99.5049 18.7621 99.5049V100.476C18.6738 100.432 18.5413 100.432 18.4089 100.432C18.2765 100.432 18.144 100.476 18.0557 100.52C17.9674 100.564 17.835 100.697 17.7467 100.829V103.61L16.8196 103.655Z" fill="#054C96"/>
</g>
<g id="Group_27">
<path id="Vector_26" d="M19.2476 103.655V99.5935H20.2188V99.9908C20.5278 99.6818 20.881 99.5493 21.19 99.5493C21.4107 99.5493 21.5873 99.6376 21.6756 99.8142C21.7639 99.9908 21.8522 100.212 21.8522 100.432V103.699H20.881V100.653C20.881 100.521 20.881 100.432 20.8368 100.388C20.7927 100.344 20.7485 100.3 20.6161 100.3C20.4836 100.3 20.3512 100.344 20.1746 100.476V103.699H19.2476V103.655Z" fill="#054C96"/>
</g>
<g id="Group_28">
<path id="Vector_27" d="M23.8388 103.037C23.9271 103.037 23.9712 103.037 24.0153 102.993C24.0595 102.949 24.1036 102.904 24.1036 102.816C24.1036 102.728 24.1478 102.684 24.1478 102.595C24.1478 102.551 24.1478 102.463 24.1478 102.331V100.874C24.1478 100.785 24.1478 100.697 24.1478 100.653C24.1478 100.609 24.1478 100.521 24.1036 100.476C24.1036 100.432 24.0595 100.344 24.0595 100.3C24.0153 100.256 24.0153 100.212 23.9712 100.212C23.9271 100.167 23.8829 100.167 23.7946 100.167C23.7063 100.167 23.6622 100.167 23.618 100.212C23.5739 100.256 23.5297 100.3 23.5297 100.388C23.4856 100.476 23.4856 100.521 23.4856 100.609C23.4856 100.697 23.4856 100.785 23.4856 100.874V102.331C23.4856 102.419 23.4856 102.507 23.4856 102.551C23.4856 102.595 23.4856 102.684 23.5297 102.728C23.5297 102.772 23.5739 102.86 23.5739 102.904C23.618 102.949 23.618 102.993 23.6622 102.993C23.7063 103.037 23.7505 103.037 23.8388 103.037ZM23.8388 103.699C23.3973 103.699 23.0883 103.567 22.8676 103.346C22.6468 103.081 22.5585 102.728 22.5585 102.286V100.962C22.5585 100.521 22.6468 100.167 22.8676 99.9025C23.0883 99.6376 23.3973 99.5493 23.8388 99.5493C24.2802 99.5493 24.5892 99.6818 24.81 99.9025C25.0307 100.167 25.119 100.521 25.119 100.962V102.286C25.119 102.728 24.9866 103.081 24.81 103.346C24.5892 103.567 24.2802 103.699 23.8388 103.699Z" fill="#054C96"/>
</g>
<g id="Group_29">
<path id="Vector_28" d="M28.6065 100.388H28.8714C29.1804 100.388 29.4011 100.344 29.5335 100.211C29.666 100.079 29.7101 99.8582 29.7101 99.5492C29.7101 99.2402 29.666 99.0195 29.5335 98.887C29.4453 98.7546 29.2245 98.7104 28.9155 98.7104H28.6065V100.388ZM27.5911 103.655V97.96H28.9155C29.2245 97.96 29.4894 98.0041 29.7101 98.0483C29.9309 98.0924 30.1074 98.1807 30.284 98.3131C30.4606 98.4456 30.5489 98.578 30.6372 98.7987C30.7255 98.9753 30.7696 99.2402 30.7696 99.5051C30.7696 99.8582 30.7255 100.167 30.593 100.388C30.5048 100.609 30.3282 100.785 30.0633 100.874L30.8579 103.699H29.7984L29.0921 101.094H28.6506V103.699H27.5911V103.655Z" fill="#054C96"/>
</g>
<g id="Group_30">
<path id="Vector_29" d="M32.3148 101.183H33.0211V100.785C33.0211 100.565 32.977 100.432 32.9328 100.344C32.8887 100.256 32.8004 100.211 32.6679 100.211C32.5355 100.211 32.4472 100.256 32.4031 100.344C32.3589 100.432 32.3148 100.609 32.3148 100.874V101.183ZM32.6679 103.699C32.1823 103.699 31.8733 103.567 31.6526 103.302C31.4319 103.037 31.3436 102.684 31.3436 102.154V101.006C31.3436 100.52 31.4319 100.123 31.6526 99.8582C31.8733 99.5934 32.1823 99.4609 32.6679 99.4609C32.8887 99.4609 33.1094 99.5051 33.286 99.5492C33.4626 99.6375 33.595 99.7258 33.6833 99.8582C33.7716 99.9907 33.8599 100.167 33.8599 100.344C33.904 100.52 33.904 100.785 33.904 101.05V101.58H32.2706V102.198V102.419C32.2706 102.463 32.2706 102.507 32.2706 102.595C32.2706 102.684 32.2706 102.728 32.3148 102.728C32.3148 102.772 32.3589 102.816 32.3589 102.86C32.4031 102.904 32.4031 102.904 32.4472 102.948C32.4914 102.948 32.5355 102.993 32.5797 102.993C32.7121 102.993 32.8004 102.948 32.8445 102.86C32.8887 102.772 32.9328 102.639 32.9328 102.463V102.242H33.8599V102.419C33.8599 102.86 33.7716 103.169 33.5509 103.39C33.4184 103.611 33.1094 103.699 32.6679 103.699Z" fill="#054C96"/>
</g>
<g id="Group_31">
<path id="Vector_30" d="M35.8023 101.756C35.9789 101.756 36.0672 101.712 36.1113 101.58C36.1555 101.447 36.1996 101.226 36.1996 100.962C36.1996 100.653 36.1555 100.432 36.1113 100.299C36.0672 100.167 35.9789 100.123 35.8023 100.123C35.6257 100.123 35.5374 100.167 35.4933 100.299C35.4491 100.432 35.405 100.653 35.405 100.962C35.405 101.05 35.405 101.182 35.405 101.226C35.405 101.315 35.405 101.359 35.4492 101.447C35.4492 101.536 35.4933 101.58 35.4933 101.624C35.5374 101.668 35.5374 101.712 35.5816 101.712C35.6699 101.756 35.714 101.756 35.8023 101.756ZM35.9789 104.184C36.1996 104.184 36.3321 104.14 36.4204 104.096C36.5087 104.052 36.5528 103.964 36.5528 103.831C36.5528 103.699 36.5086 103.61 36.4645 103.566C36.3762 103.522 36.2879 103.478 36.1113 103.478L35.4492 103.434C35.3167 103.61 35.2284 103.743 35.2284 103.875C35.2284 103.964 35.2284 104.008 35.2726 104.052C35.3167 104.096 35.405 104.14 35.4933 104.14C35.6257 104.184 35.7582 104.184 35.9789 104.184ZM35.9789 104.891C35.8465 104.891 35.7582 104.891 35.6699 104.891C35.5816 104.891 35.4933 104.891 35.3609 104.891C35.2284 104.891 35.1401 104.846 35.0518 104.846C34.9635 104.846 34.8753 104.802 34.787 104.758C34.6987 104.714 34.6104 104.67 34.5662 104.626C34.5221 104.582 34.4779 104.537 34.4338 104.449C34.3896 104.361 34.3896 104.317 34.3896 104.228C34.3896 103.875 34.5662 103.61 34.9635 103.345C34.6987 103.257 34.5662 103.081 34.5221 102.904C34.5221 102.772 34.5221 102.639 34.6104 102.507C34.6987 102.418 34.787 102.286 34.9635 102.109C34.8311 101.977 34.6987 101.845 34.6104 101.668C34.5221 101.491 34.4779 101.271 34.4779 100.962C34.4779 100.476 34.5662 100.079 34.787 99.858C35.0077 99.5931 35.3167 99.5048 35.714 99.5048C36.1555 99.5048 36.4204 99.6372 36.5969 99.9021C36.6411 99.858 36.7294 99.7697 36.8177 99.6814C36.906 99.5931 37.0384 99.5048 37.1267 99.4607L37.2591 99.4165L37.4799 99.9463C37.3916 99.9463 37.2591 99.9904 37.1267 100.079C36.9501 100.123 36.8618 100.167 36.8177 100.211C36.8618 100.299 36.906 100.388 36.9501 100.564C36.9943 100.697 36.9943 100.873 36.9943 101.006C36.9943 101.933 36.5969 102.418 35.7582 102.418C35.714 102.418 35.5816 102.418 35.4933 102.374C35.3609 102.374 35.3167 102.33 35.2726 102.33C35.1843 102.463 35.1401 102.551 35.1843 102.595C35.1843 102.683 35.3167 102.727 35.5374 102.772C35.5816 102.772 35.6699 102.772 35.8906 102.816C36.1113 102.816 36.2438 102.86 36.2879 102.86C36.6411 102.904 36.8618 102.992 37.0384 103.169C37.215 103.345 37.2591 103.566 37.2591 103.875C37.2591 104.228 37.1708 104.493 36.9501 104.67C36.8177 104.802 36.4645 104.891 35.9789 104.891Z" fill="#054C96"/>
</g>
<g id="Group_32">
<path id="Vector_31" d="M37.8771 103.655H38.8483V99.5935H37.8771V103.655ZM37.8771 98.9313H38.8483V98.1367H37.8771V98.9313Z" fill="#054C96"/>
</g>
<g id="Group_33">
<path id="Vector_32" d="M40.835 103.037C40.9233 103.037 40.9674 103.037 41.0116 102.993C41.0557 102.949 41.0999 102.904 41.0999 102.816C41.0999 102.728 41.144 102.684 41.144 102.595C41.144 102.551 41.144 102.463 41.144 102.331V100.874V100.653C41.144 100.609 41.144 100.521 41.0999 100.476C41.0999 100.432 41.0557 100.344 41.0557 100.3C41.0116 100.256 41.0116 100.212 40.9674 100.212C40.9233 100.167 40.8791 100.167 40.7908 100.167C40.7025 100.167 40.6584 100.167 40.6143 100.212C40.5701 100.256 40.526 100.3 40.526 100.388C40.4818 100.476 40.4818 100.521 40.4818 100.609C40.4818 100.697 40.4818 100.785 40.4818 100.874V102.331C40.4818 102.419 40.4818 102.507 40.4818 102.551C40.4818 102.595 40.4818 102.684 40.526 102.728C40.526 102.772 40.5701 102.86 40.5701 102.904C40.6143 102.949 40.6142 102.993 40.6584 102.993C40.7025 103.037 40.7908 103.037 40.835 103.037ZM40.835 103.699C40.3935 103.699 40.0845 103.567 39.8638 103.346C39.643 103.081 39.5547 102.728 39.5547 102.286V100.962C39.5547 100.521 39.643 100.167 39.8638 99.9025C40.0845 99.6376 40.3935 99.5493 40.835 99.5493C41.2764 99.5493 41.6296 99.6818 41.8062 99.9025C42.0269 100.167 42.1152 100.521 42.1152 100.962V102.286C42.1152 102.728 42.0269 103.081 41.8062 103.346C41.6296 103.567 41.2764 103.699 40.835 103.699Z" fill="#054C96"/>
</g>
<g id="Group_34">
<path id="Vector_33" d="M42.8215 103.655V99.5935H43.7927V99.9908C44.1017 99.6818 44.4549 99.5493 44.808 99.5493C45.0288 99.5493 45.2053 99.6376 45.2936 99.8142C45.3819 99.9908 45.4702 100.212 45.4702 100.432V103.699H44.499V100.653C44.499 100.521 44.499 100.432 44.4549 100.388C44.4107 100.344 44.3666 100.3 44.2341 100.3C44.1017 100.3 43.9693 100.344 43.7927 100.476V103.699H42.8215V103.655Z" fill="#054C96"/>
</g>
<g id="Group_35">
<path id="Vector_34" d="M47.3245 102.948C47.4128 102.948 47.4569 102.904 47.5452 102.86C47.6335 102.816 47.6776 102.728 47.7218 102.683V101.58C47.2362 101.845 47.0155 102.154 47.0155 102.463C47.0155 102.595 47.0596 102.728 47.1037 102.816C47.1037 102.904 47.192 102.948 47.3245 102.948ZM46.9272 103.699C46.6623 103.699 46.4416 103.61 46.3091 103.39C46.1325 103.213 46.0443 102.948 46.0443 102.728C46.0443 102.507 46.0884 102.286 46.1767 102.109C46.265 101.933 46.3974 101.8 46.574 101.668C46.7506 101.536 46.883 101.447 47.0155 101.403C47.1479 101.359 47.3245 101.271 47.5452 101.182L47.7218 101.138V100.785C47.7218 100.609 47.7218 100.476 47.6776 100.388C47.6335 100.3 47.5452 100.255 47.4128 100.255C47.192 100.255 47.1037 100.388 47.0596 100.697V100.962L46.1325 100.918C46.1325 100.918 46.1325 100.873 46.1325 100.829C46.1325 100.785 46.1325 100.785 46.1325 100.741C46.1767 100.3 46.265 99.9905 46.5299 99.8139C46.7506 99.5932 47.0596 99.5049 47.5011 99.5049C47.8984 99.5049 48.2074 99.5932 48.384 99.8139C48.5606 100.035 48.693 100.344 48.693 100.741V102.595C48.693 102.904 48.7371 103.257 48.7813 103.61H47.8984C47.8542 103.346 47.8101 103.125 47.8101 102.992C47.7659 103.169 47.6776 103.346 47.5452 103.478C47.3245 103.655 47.1479 103.699 46.9272 103.699Z" fill="#054C96"/>
</g>
<g id="Group_36">
<path id="Vector_35" d="M50.3706 97.9155H49.3994V103.61H50.3706V97.9155Z" fill="#054C96"/>
</g>
<g id="Group_37">
<path id="Vector_36" d="M52.8868 103.654L52.9751 97.9155H54.0346L54.8734 101.933L55.7563 97.9155H56.7717L56.86 103.654H56.1095L56.0212 99.7255L55.1824 103.654H54.6085L53.7698 99.6814L53.6815 103.654H52.8868Z" fill="#054C96"/>
</g>
<g id="Group_38">
<path id="Vector_37" d="M58.5375 101.183H59.2438V100.785C59.2438 100.565 59.1997 100.432 59.1555 100.344C59.1114 100.256 59.0231 100.211 58.8907 100.211C58.7582 100.211 58.6699 100.256 58.6258 100.344C58.5816 100.432 58.5375 100.609 58.5375 100.874V101.183ZM58.8907 103.699C58.4051 103.699 58.096 103.567 57.8753 103.302C57.6546 103.037 57.5663 102.684 57.5663 102.154V101.006C57.5663 100.52 57.6546 100.123 57.8753 99.8582C58.096 99.5934 58.4051 99.4609 58.8907 99.4609C59.1114 99.4609 59.3321 99.5051 59.5087 99.5492C59.6853 99.6375 59.8177 99.7258 59.906 99.8582C59.9943 99.9907 60.0826 100.167 60.0826 100.344C60.1268 100.52 60.1267 100.785 60.1267 101.05V101.58H58.5375V102.198V102.419C58.5375 102.463 58.5375 102.507 58.5375 102.595C58.5375 102.684 58.5375 102.728 58.5816 102.728C58.5816 102.772 58.6258 102.816 58.6258 102.86C58.6699 102.904 58.6699 102.904 58.7141 102.948C58.7582 102.948 58.8024 102.993 58.8465 102.993C58.979 102.993 59.0672 102.948 59.1114 102.86C59.1555 102.772 59.1997 102.639 59.1997 102.463V102.242H60.1267V102.419C60.1267 102.86 60.0385 103.169 59.8177 103.39C59.6411 103.611 59.3321 103.699 58.8907 103.699Z" fill="#054C96"/>
</g>
<g id="Group_39">
<path id="Vector_38" d="M61.9366 103.698C61.7601 103.698 61.5835 103.654 61.451 103.61C61.3186 103.566 61.2303 103.478 61.142 103.345C61.0537 103.213 61.0096 103.124 61.0096 102.992C60.9654 102.86 60.9654 102.683 60.9654 102.506V100.211H60.5681V99.5928H60.9654V98.4009H61.9366V99.5928H62.5547V100.211H61.9366V102.551C61.9366 102.683 61.9808 102.771 62.0249 102.86C62.0691 102.904 62.2015 102.948 62.2898 102.948C62.3781 102.948 62.4664 102.948 62.5988 102.948V103.698C62.334 103.698 62.1132 103.698 61.9366 103.698Z" fill="#054C96"/>
</g>
<g id="Group_40">
<path id="Vector_39" d="M63.1727 103.655V99.5932H64.1439V100.211C64.2763 99.9463 64.4087 99.8139 64.5412 99.6815C64.6736 99.5932 64.8061 99.5049 64.9826 99.5049C65.0268 99.5049 65.0709 99.5049 65.1151 99.5049V100.476C64.9826 100.432 64.8944 100.432 64.7619 100.432C64.6295 100.432 64.497 100.476 64.4087 100.52C64.3205 100.564 64.188 100.697 64.0997 100.829V103.61L63.1727 103.655Z" fill="#054C96"/>
</g>
<g id="Group_41">
<path id="Vector_40" d="M66.8368 103.037C66.9251 103.037 66.9692 103.037 67.0134 102.993C67.0575 102.949 67.1017 102.904 67.1458 102.816C67.1458 102.728 67.19 102.684 67.19 102.595C67.19 102.551 67.19 102.463 67.19 102.331V100.874C67.19 100.785 67.19 100.697 67.19 100.653C67.19 100.609 67.19 100.521 67.1458 100.476C67.1458 100.432 67.1017 100.344 67.1017 100.3C67.0575 100.256 67.0575 100.212 67.0134 100.212C66.9692 100.167 66.9251 100.167 66.8368 100.167C66.7485 100.167 66.7044 100.167 66.6602 100.212C66.6161 100.256 66.5719 100.3 66.5719 100.388C66.5719 100.476 66.5278 100.521 66.5278 100.609C66.5278 100.697 66.5278 100.785 66.5278 100.874V102.331C66.5278 102.419 66.5278 102.507 66.5278 102.551C66.5278 102.595 66.5278 102.684 66.5719 102.728C66.5719 102.772 66.6161 102.86 66.6161 102.904C66.6602 102.949 66.6602 102.993 66.7044 102.993C66.7044 103.037 66.7485 103.037 66.8368 103.037ZM66.8368 103.699C66.3953 103.699 66.0863 103.567 65.8656 103.346C65.6449 103.081 65.5566 102.728 65.5566 102.286V100.962C65.5566 100.521 65.689 100.167 65.8656 99.9025C66.0863 99.6376 66.3953 99.5493 66.8368 99.5493C67.2783 99.5493 67.5873 99.6818 67.808 99.9025C68.0288 100.167 68.117 100.521 68.117 100.962V102.286C68.117 102.728 67.9846 103.081 67.808 103.346C67.5873 103.567 67.2783 103.699 66.8368 103.699Z" fill="#054C96"/>
</g>
<g id="Group_42">
<path id="Vector_41" d="M70.1919 103.037C70.2802 103.037 70.3243 102.993 70.3685 102.993C70.4126 102.948 70.4568 102.904 70.4568 102.816C70.4568 102.728 70.5009 102.684 70.5009 102.595C70.5009 102.507 70.5009 102.419 70.5009 102.286V100.874C70.5009 100.785 70.5009 100.697 70.5009 100.609C70.5009 100.52 70.4568 100.476 70.4568 100.388C70.4126 100.3 70.4126 100.256 70.3243 100.211C70.2802 100.167 70.1919 100.167 70.1478 100.167C70.0153 100.167 69.8829 100.211 69.7504 100.344V102.904C69.8829 102.993 70.0595 103.037 70.1919 103.037ZM68.7792 104.979V99.5492H69.7504V99.8582C70.0153 99.5934 70.2802 99.4609 70.5892 99.4609C70.7217 99.4609 70.8541 99.5051 70.9865 99.5492C71.0748 99.5934 71.1631 99.6817 71.2514 99.77C71.3397 99.8582 71.3838 99.9907 71.428 100.123C71.4721 100.256 71.5163 100.388 71.5163 100.476C71.5163 100.609 71.5163 100.697 71.5163 100.829V102.154C71.5163 102.375 71.5163 102.551 71.4721 102.728C71.428 102.904 71.3838 103.081 71.2955 103.213C71.2073 103.346 71.119 103.478 70.9865 103.522C70.8541 103.611 70.7217 103.655 70.5451 103.655C70.2802 103.655 70.0595 103.522 69.7946 103.302V104.935L68.7792 104.979Z" fill="#054C96"/>
</g>
<g id="Group_43">
<path id="Vector_42" d="M73.4146 103.037C73.5029 103.037 73.547 103.037 73.5912 102.993C73.6353 102.949 73.6795 102.904 73.6795 102.816C73.6795 102.728 73.7236 102.684 73.7236 102.595C73.7236 102.551 73.7236 102.463 73.7236 102.331V100.874C73.7236 100.785 73.7236 100.697 73.7236 100.653C73.7236 100.609 73.7236 100.521 73.6795 100.476C73.6795 100.432 73.6353 100.344 73.6353 100.3C73.5912 100.256 73.5912 100.212 73.547 100.212C73.5029 100.167 73.4587 100.167 73.3704 100.167C73.2821 100.167 73.238 100.167 73.1939 100.212C73.1497 100.256 73.1056 100.3 73.1056 100.388C73.1056 100.476 73.0614 100.521 73.0614 100.609C73.0614 100.697 73.0614 100.785 73.0614 100.874V102.331C73.0614 102.419 73.0614 102.507 73.0614 102.551C73.0614 102.595 73.0614 102.684 73.1056 102.728C73.1056 102.772 73.1497 102.86 73.1497 102.904C73.1939 102.949 73.1939 102.993 73.238 102.993C73.2821 103.037 73.3263 103.037 73.4146 103.037ZM73.3704 103.699C72.929 103.699 72.62 103.567 72.3992 103.346C72.1785 103.081 72.0902 102.728 72.0902 102.286V100.962C72.0902 100.521 72.1785 100.167 72.3992 99.9025C72.62 99.6376 72.929 99.5493 73.3704 99.5493C73.8119 99.5493 74.1209 99.6818 74.3416 99.9025C74.5624 100.167 74.6507 100.521 74.6507 100.962V102.286C74.6507 102.728 74.5624 103.081 74.3416 103.346C74.1651 103.567 73.8119 103.699 73.3704 103.699Z" fill="#054C96"/>
</g>
<g id="Group_44">
<path id="Vector_43" d="M76.4166 97.9155H75.4454V103.61H76.4166V97.9155Z" fill="#054C96"/>
</g>
<g id="Group_45">
<path id="Vector_44" d="M77.1669 103.655H78.1381V99.5935H77.1669V103.655ZM77.1669 98.9313H78.1381V98.1367H77.1669V98.9313Z" fill="#054C96"/>
</g>
<g id="Group_46">
<path id="Vector_45" d="M80.0365 103.698C79.8599 103.698 79.6833 103.654 79.5509 103.61C79.4184 103.566 79.3302 103.478 79.2419 103.345C79.1536 103.213 79.1094 103.124 79.1094 102.992C79.0653 102.86 79.0653 102.683 79.0653 102.506V100.211H78.668V99.5928H79.0653V98.4009H80.0365V99.5928H80.6545V100.211H80.0365V102.551C80.0365 102.683 80.0806 102.771 80.1248 102.86C80.1689 102.904 80.3014 102.948 80.3897 102.948C80.478 102.948 80.5662 102.948 80.6987 102.948V103.698C80.4338 103.698 80.2131 103.698 80.0365 103.698Z" fill="#054C96"/>
</g>
<g id="Group_47">
<path id="Vector_46" d="M82.3763 102.948C82.4646 102.948 82.5087 102.904 82.597 102.86C82.6853 102.816 82.7294 102.728 82.7736 102.683V101.58C82.288 101.845 82.0673 102.154 82.0673 102.463C82.0673 102.595 82.1114 102.728 82.1556 102.816C82.1997 102.904 82.288 102.948 82.3763 102.948ZM82.0231 103.699C81.7582 103.699 81.5375 103.61 81.4051 103.39C81.2285 103.213 81.1402 102.948 81.1402 102.728C81.1402 102.507 81.1843 102.286 81.2726 102.109C81.3609 101.933 81.4934 101.8 81.6699 101.668C81.8465 101.536 81.979 101.447 82.1114 101.403C82.2438 101.359 82.4204 101.271 82.6412 101.182C82.6853 101.138 82.7736 101.138 82.7736 101.138V100.785C82.7736 100.609 82.7294 100.476 82.6853 100.388C82.6412 100.3 82.5529 100.255 82.4204 100.255C82.1997 100.255 82.1114 100.388 82.1114 100.697V100.962L81.1843 100.918V100.829C81.1843 100.785 81.1843 100.785 81.1843 100.741C81.2285 100.3 81.3609 99.9905 81.5817 99.8139C81.8024 99.5932 82.1114 99.5049 82.5529 99.5049C82.9502 99.5049 83.2592 99.5932 83.4358 99.8139C83.6124 100.035 83.7448 100.344 83.7448 100.741V102.595C83.7448 102.904 83.7889 103.257 83.8331 103.61H82.9502C82.906 103.346 82.8619 103.125 82.8619 102.992C82.8177 103.169 82.6853 103.346 82.5529 103.478C82.4204 103.655 82.2438 103.699 82.0231 103.699Z" fill="#054C96"/>
</g>
<g id="Group_48">
<path id="Vector_47" d="M84.4511 103.655V99.5935H85.4223V99.9908C85.7755 99.6818 86.0845 99.5493 86.4377 99.5493C86.6584 99.5493 86.835 99.6376 86.9233 99.8142C87.0116 99.9908 87.0999 100.212 87.0999 100.432V103.699H86.1287V100.653C86.1287 100.521 86.1287 100.432 86.0845 100.388C86.0404 100.344 85.9962 100.3 85.8638 100.3C85.7313 100.3 85.5989 100.344 85.4223 100.476V103.699H84.4511V103.655Z" fill="#054C96"/>
</g>
<g id="Group_49">
<path id="Vector_48" d="M88.9981 103.037C89.0864 103.037 89.1306 103.037 89.1747 102.993C89.2189 102.949 89.263 102.904 89.3072 102.816C89.3072 102.728 89.3513 102.684 89.3513 102.595C89.3513 102.551 89.3513 102.463 89.3513 102.331V100.874C89.3513 100.785 89.3513 100.697 89.3513 100.653C89.3513 100.609 89.3513 100.521 89.3072 100.476C89.3072 100.432 89.263 100.344 89.263 100.3C89.2189 100.256 89.2189 100.212 89.1747 100.212C89.1306 100.167 89.0864 100.167 88.9981 100.167C88.9098 100.167 88.8657 100.167 88.8215 100.212C88.7774 100.256 88.7333 100.3 88.7333 100.388C88.7333 100.476 88.6891 100.521 88.6891 100.609C88.6891 100.697 88.6891 100.785 88.6891 100.874V102.331C88.6891 102.419 88.6891 102.507 88.6891 102.551C88.6891 102.595 88.6891 102.684 88.7333 102.728C88.7333 102.772 88.7774 102.86 88.7774 102.904C88.8215 102.949 88.8657 102.993 88.9098 102.993C88.8657 103.037 88.954 103.037 88.9981 103.037ZM88.9981 103.699C88.5567 103.699 88.2476 103.567 88.0269 103.346C87.8062 103.081 87.7179 102.728 87.7179 102.286V100.962C87.7179 100.521 87.8062 100.167 88.0269 99.9025C88.2476 99.6376 88.5567 99.5493 88.9981 99.5493C89.4396 99.5493 89.7486 99.6818 89.9693 99.9025C90.1901 100.167 90.2784 100.521 90.2784 100.962V102.286C90.2784 102.728 90.1901 103.081 89.9693 103.346C89.7486 103.567 89.4396 103.699 88.9981 103.699Z" fill="#054C96"/>
</g>
<g id="Group_50">
<path id="Vector_49" d="M31.4759 110.055C31.6084 110.055 31.6967 110.011 31.8291 109.967V107.363C31.6967 107.274 31.5642 107.23 31.4759 107.23C31.3435 107.23 31.2552 107.274 31.2111 107.407C31.1669 107.539 31.1228 107.672 31.1228 107.848V109.349C31.1228 109.482 31.1228 109.614 31.1669 109.702C31.1669 109.791 31.2111 109.879 31.2552 109.967C31.2994 110.055 31.3877 110.055 31.4759 110.055ZM31.1228 110.762C30.7696 110.762 30.5489 110.629 30.3723 110.409C30.1957 110.188 30.1074 109.791 30.1074 109.261V108.069C30.1074 107.848 30.1074 107.672 30.1516 107.495C30.1957 107.318 30.2399 107.142 30.3282 107.009C30.4164 106.877 30.5047 106.745 30.6372 106.656C30.7696 106.568 30.9462 106.524 31.1228 106.524C31.3877 106.524 31.6084 106.612 31.8291 106.833V104.935H32.8003V110.629H31.8291V110.365C31.6084 110.629 31.3877 110.762 31.1228 110.762Z" fill="#054C96"/>
</g>
<g id="Group_51">
<path id="Vector_50" d="M34.4339 108.246H35.1402V107.848C35.1402 107.628 35.096 107.495 35.0519 107.407C35.0078 107.319 34.9195 107.274 34.787 107.274C34.6546 107.274 34.5663 107.319 34.5221 107.407C34.478 107.495 34.4339 107.672 34.4339 107.937V108.246ZM34.787 110.762C34.3456 110.762 33.9924 110.629 33.7717 110.365C33.5509 110.1 33.4626 109.747 33.4626 109.217V108.069C33.4626 107.583 33.5509 107.186 33.7717 106.921C33.9924 106.656 34.3014 106.524 34.787 106.524C35.0519 106.524 35.2285 106.568 35.4051 106.612C35.5816 106.701 35.7141 106.789 35.8024 106.921C35.8907 107.054 35.979 107.23 35.979 107.407C36.0231 107.583 36.0231 107.804 36.0231 108.113V108.643H34.4339V109.261V109.438C34.4339 109.482 34.4339 109.526 34.4339 109.614C34.4339 109.702 34.4339 109.747 34.478 109.791C34.478 109.835 34.5221 109.879 34.5221 109.879C34.5663 109.923 34.5663 109.967 34.6104 109.967C34.6546 109.967 34.6987 109.967 34.7429 109.967C34.8753 109.967 34.9636 109.923 35.0078 109.835C35.0519 109.747 35.096 109.614 35.096 109.438V109.217H36.0231V109.393C36.0231 109.835 35.9348 110.144 35.7141 110.365C35.4934 110.629 35.1843 110.762 34.787 110.762Z" fill="#054C96"/>
</g>
<g id="Group_52">
<path id="Vector_51" d="M39.9078 110.762C38.8924 110.762 38.3627 110.188 38.3185 109.04L39.2015 108.863C39.2456 109.614 39.4222 110.011 39.8636 110.011C40.0402 110.011 40.1285 109.967 40.2168 109.879C40.3051 109.79 40.3493 109.658 40.3493 109.481C40.3493 109.305 40.3051 109.172 40.261 109.04C40.2168 108.907 40.1285 108.819 40.0402 108.731C39.9519 108.643 39.8636 108.554 39.7312 108.422L38.9807 107.76C38.76 107.583 38.5834 107.362 38.4951 107.142C38.4068 106.921 38.3185 106.656 38.3185 106.347C38.3185 105.906 38.451 105.552 38.7159 105.332C38.9807 105.067 39.3339 104.979 39.7754 104.979C39.9961 104.979 40.1727 105.023 40.3493 105.067C40.5258 105.111 40.6583 105.199 40.7466 105.288C40.8349 105.376 40.9231 105.508 41.0114 105.641C41.0997 105.773 41.1439 105.906 41.1439 106.082C41.188 106.215 41.188 106.391 41.2322 106.568L40.3493 106.744C40.3493 106.612 40.3493 106.524 40.3493 106.435C40.3493 106.347 40.3051 106.259 40.3051 106.17C40.261 106.082 40.261 105.994 40.2168 105.95C40.1727 105.906 40.1285 105.861 40.0402 105.817C39.9961 105.773 39.9078 105.773 39.8195 105.773C39.6871 105.773 39.5546 105.817 39.4663 105.906C39.378 105.994 39.3339 106.126 39.3339 106.303C39.3339 106.479 39.378 106.656 39.4222 106.744C39.5105 106.877 39.5988 107.009 39.7754 107.142L40.5258 107.804C40.6583 107.936 40.7466 108.025 40.8349 108.113C40.9231 108.201 41.0114 108.334 41.0997 108.466C41.188 108.598 41.2322 108.731 41.2763 108.907C41.3205 109.084 41.3646 109.261 41.3646 109.437C41.3646 109.835 41.2322 110.188 40.9673 110.453C40.7024 110.629 40.3493 110.762 39.9078 110.762Z" fill="#054C96"/>
</g>
<g id="Group_53">
<path id="Vector_52" d="M43.0424 110.011C43.1307 110.011 43.1748 109.967 43.2631 109.923C43.3514 109.879 43.3955 109.791 43.4397 109.746V108.643C42.9541 108.908 42.7333 109.217 42.7333 109.526C42.7333 109.658 42.7775 109.791 42.8216 109.879C42.8658 109.967 42.9541 110.011 43.0424 110.011ZM42.6892 110.762C42.4243 110.762 42.2036 110.673 42.0712 110.453C41.8946 110.232 41.8063 110.011 41.8063 109.791C41.8063 109.57 41.8504 109.349 41.9387 109.172C42.027 108.996 42.1594 108.863 42.336 108.731C42.5126 108.599 42.645 108.51 42.7775 108.466C42.9099 108.422 43.0865 108.334 43.3072 108.245L43.4838 108.201V107.848C43.4838 107.672 43.4397 107.539 43.4397 107.451C43.3955 107.362 43.3072 107.318 43.1748 107.318C42.9541 107.318 42.8658 107.451 42.8658 107.76V108.025L41.9387 107.981V107.892V107.804C41.9829 107.362 42.1153 107.053 42.336 106.877C42.5568 106.656 42.8658 106.568 43.3072 106.568C43.7045 106.568 44.0136 106.656 44.1902 106.877C44.3667 107.098 44.4992 107.407 44.4992 107.804V109.658C44.4992 109.967 44.5433 110.32 44.5875 110.673H43.7045C43.6604 110.409 43.6163 110.188 43.6163 110.055C43.5721 110.232 43.4838 110.409 43.3072 110.541C43.0424 110.718 42.9099 110.762 42.6892 110.762Z" fill="#054C96"/>
</g>
<g id="Group_54">
<path id="Vector_53" d="M45.073 110.718V106.656H46.0442V107.054C46.3532 106.745 46.7064 106.612 47.0154 106.612C47.2361 106.612 47.4127 106.701 47.501 106.877C47.5893 107.054 47.6776 107.274 47.6776 107.495V110.762H46.7064V107.716C46.7064 107.584 46.7064 107.495 46.6622 107.407C46.6181 107.363 46.574 107.319 46.4415 107.319C46.3091 107.319 46.1766 107.363 46.0001 107.495V110.718H45.073Z" fill="#054C96"/>
</g>
<g id="Group_55">
<path id="Vector_54" d="M49.5758 110.762C49.3992 110.762 49.2226 110.718 49.0902 110.674C48.9578 110.63 48.8695 110.542 48.7812 110.409C48.6929 110.277 48.6488 110.188 48.6046 110.056C48.5605 109.924 48.5605 109.747 48.5605 109.57V107.275H48.1631V106.657H48.5605V105.465H49.5317V106.657H50.1497V107.275H49.5317V109.615C49.5317 109.747 49.5758 109.835 49.62 109.924C49.6641 109.968 49.7965 110.012 49.8848 110.012C49.9731 110.012 50.0614 110.012 50.1939 110.012V110.762C49.929 110.718 49.7083 110.762 49.5758 110.762Z" fill="#054C96"/>
</g>
<g id="Group_56">
<path id="Vector_55" d="M50.8119 110.718H51.7831V106.657H50.8119V110.718ZM50.8119 105.994H51.7831V105.2H50.8119V105.994Z" fill="#054C96"/>
</g>
<g id="Group_57">
<path id="Vector_56" d="M53.6815 110.011C53.7697 110.011 53.8139 109.967 53.9022 109.923C53.9905 109.879 54.0346 109.791 54.0788 109.746V108.643C53.5932 108.908 53.3724 109.217 53.3724 109.526C53.3724 109.658 53.4166 109.791 53.4607 109.879C53.5049 109.967 53.5932 110.011 53.6815 110.011ZM53.3283 110.762C53.0634 110.762 52.8427 110.673 52.7102 110.453C52.5337 110.232 52.4454 110.011 52.4454 109.791C52.4454 109.57 52.4895 109.349 52.5778 109.172C52.6661 108.996 52.7985 108.863 52.9751 108.731C53.1517 108.599 53.2841 108.51 53.4166 108.466C53.549 108.422 53.7256 108.334 53.9463 108.245L54.1229 108.201V107.848C54.1229 107.672 54.0788 107.539 54.0346 107.451C53.9905 107.362 53.9022 107.318 53.7697 107.318C53.549 107.318 53.4607 107.451 53.4607 107.76V108.025L52.5337 107.981V107.892V107.804C52.5778 107.362 52.7102 107.053 52.931 106.877C53.1517 106.656 53.4607 106.568 53.9022 106.568C54.2995 106.568 54.6085 106.656 54.7851 106.877C54.9617 107.098 55.0941 107.407 55.0941 107.804V109.658C55.0941 109.967 55.0941 110.32 55.1824 110.673H54.2995C54.2554 110.409 54.2112 110.188 54.2112 110.055C54.1671 110.232 54.0346 110.409 53.9463 110.541C53.6815 110.718 53.5049 110.762 53.3283 110.762Z" fill="#054C96"/>
</g>
<g id="Group_58">
<path id="Vector_57" d="M56.9483 108.82C57.1248 108.82 57.2131 108.776 57.2573 108.643C57.3014 108.511 57.3456 108.334 57.3456 108.025C57.3456 107.716 57.3456 107.496 57.2573 107.363C57.2131 107.231 57.1248 107.187 56.9483 107.187C56.7717 107.187 56.6834 107.231 56.6392 107.363C56.5951 107.496 56.5509 107.716 56.5509 108.025C56.5509 108.114 56.5509 108.246 56.5509 108.29C56.5509 108.378 56.5509 108.423 56.5951 108.511C56.5951 108.599 56.6392 108.643 56.6834 108.687C56.7275 108.732 56.7275 108.776 56.7717 108.776C56.8158 108.82 56.86 108.82 56.9483 108.82ZM57.1248 111.248C57.3014 111.248 57.478 111.204 57.5663 111.16C57.6546 111.115 57.6987 111.027 57.6987 110.895C57.6987 110.762 57.6987 110.674 57.6104 110.63C57.5663 110.586 57.4339 110.542 57.2573 110.542L56.5951 110.497C56.4626 110.674 56.3744 110.806 56.3744 110.939C56.3744 111.027 56.3744 111.071 56.4185 111.115C56.4626 111.16 56.5068 111.204 56.6392 111.204C56.7275 111.248 56.9041 111.248 57.1248 111.248ZM57.1248 111.954C56.9924 111.954 56.9041 111.954 56.8158 111.954C56.7275 111.954 56.6392 111.954 56.5068 111.954C56.3744 111.954 56.2861 111.91 56.1978 111.91C56.1095 111.91 56.0212 111.866 55.9329 111.822C55.8446 111.778 55.7563 111.734 55.7122 111.689C55.668 111.645 55.6239 111.601 55.5797 111.513C55.5356 111.425 55.5356 111.38 55.5356 111.248C55.5356 110.895 55.7122 110.63 56.1095 110.365C55.8446 110.277 55.668 110.1 55.668 109.924C55.668 109.791 55.668 109.659 55.7563 109.526C55.8446 109.438 55.977 109.306 56.1536 109.129C55.977 108.996 55.8887 108.864 55.8005 108.687C55.7122 108.511 55.668 108.29 55.668 107.981C55.668 107.496 55.8005 107.098 55.977 106.877C56.1978 106.613 56.5068 106.524 56.9041 106.524C57.3456 106.524 57.6104 106.657 57.787 106.922C57.8312 106.877 57.9195 106.789 58.0077 106.701C58.096 106.613 58.2285 106.524 58.3168 106.48L58.4492 106.436L58.6699 106.966C58.5816 106.966 58.4492 107.01 58.3168 107.098C58.1402 107.142 58.0519 107.187 58.0077 107.231C58.0519 107.319 58.096 107.407 58.1402 107.584C58.1843 107.716 58.1843 107.893 58.1843 108.025C58.1843 108.952 57.787 109.438 56.9483 109.438C56.86 109.438 56.7717 109.438 56.6834 109.394C56.5509 109.394 56.5068 109.35 56.4626 109.35C56.3744 109.482 56.3302 109.57 56.3744 109.615C56.3744 109.703 56.5068 109.747 56.7275 109.791C56.7717 109.791 56.86 109.791 57.0807 109.835C57.3014 109.879 57.4339 109.879 57.478 109.879C57.8312 109.924 58.0519 110.012 58.2285 110.188C58.4051 110.365 58.4492 110.586 58.4492 110.895C58.4492 111.248 58.3609 111.513 58.1402 111.689C57.9195 111.866 57.6104 111.954 57.1248 111.954Z" fill="#054C96"/>
</g>
<g id="Group_59">
<path id="Vector_58" d="M60.215 110.1C60.3033 110.1 60.3474 110.1 60.3916 110.055C60.4357 110.011 60.4799 109.967 60.4799 109.879C60.524 109.791 60.524 109.746 60.524 109.658C60.524 109.614 60.524 109.526 60.524 109.393V107.936C60.524 107.848 60.524 107.76 60.524 107.716C60.524 107.672 60.524 107.583 60.524 107.539C60.524 107.451 60.4799 107.407 60.4799 107.362C60.4799 107.318 60.4357 107.274 60.3916 107.274C60.3474 107.274 60.3033 107.23 60.215 107.23C60.1267 107.23 60.0825 107.23 60.0384 107.274C59.9943 107.318 59.9501 107.362 59.9501 107.451C59.9501 107.539 59.906 107.583 59.906 107.672C59.906 107.76 59.906 107.804 59.906 107.936V109.393C59.906 109.482 59.906 109.526 59.906 109.614C59.906 109.658 59.906 109.746 59.906 109.791C59.906 109.879 59.9501 109.923 59.9501 109.967C59.9943 110.011 59.9943 110.055 60.0384 110.055C60.0825 110.055 60.1267 110.1 60.215 110.1ZM60.215 110.762C59.7735 110.762 59.4645 110.629 59.2438 110.364C59.023 110.1 58.9348 109.746 58.9348 109.305V107.981C58.9348 107.539 59.0672 107.142 59.2438 106.921C59.4645 106.656 59.7735 106.568 60.215 106.568C60.6564 106.568 60.9655 106.7 61.1862 106.921C61.4069 107.186 61.4952 107.539 61.4952 107.981V109.305C61.4952 109.746 61.4069 110.1 61.1862 110.364C60.9655 110.629 60.6564 110.762 60.215 110.762Z" fill="#054C96"/>
</g>
<g id="Group_60">
<path id="Vector_59" d="M37.9214 0C38.9809 0 39.8638 0.353167 40.6143 1.10365C41.3206 1.80998 41.7179 2.64875 41.762 3.66411C41.8062 4.76776 41.4089 5.69482 40.6584 6.48945C39.9079 7.23992 38.9367 7.63724 37.8772 7.59309C36.8619 7.54895 35.9789 7.15163 35.2285 6.40115C34.5221 5.65067 34.169 4.72361 34.2131 3.70825C34.2131 2.6929 34.6104 1.80998 35.3609 1.10365C35.9789 0.397313 36.8619 0 37.9214 0Z" fill="#ED962E"/>
</g>
<g id="Group_61">
<path id="Vector_60" d="M54.785 3.88477C54.9175 3.88477 55.0058 3.88477 55.1382 3.88477C55.5355 3.88477 55.9328 3.97306 56.286 4.14964C56.7716 4.37037 57.2131 4.63525 57.5662 5.03256C57.9635 5.47402 58.2284 5.95962 58.3608 6.53352C58.4491 6.84254 58.4933 7.15156 58.4933 7.46058C58.4491 7.90204 58.405 8.29935 58.2284 8.74081C58.0077 9.35885 57.5662 9.84446 57.0806 10.2418C56.6392 10.6391 56.1094 10.8598 55.5355 11.0364C55.0941 11.1688 54.6084 11.1688 54.167 11.1688C53.8138 11.1688 53.5048 11.0364 53.1958 10.9481C52.666 10.7715 52.2246 10.4625 51.8714 10.0652C51.6948 9.88861 51.5624 9.66788 51.4299 9.44715C51.2534 9.18227 51.1651 8.87325 51.0326 8.56423C50.9885 8.47594 50.9885 8.38765 50.9885 8.29935C50.9002 7.99033 50.9002 7.68131 50.9443 7.41644C50.9885 7.01912 51.0768 6.62181 51.2534 6.26864C51.4741 5.73889 51.8273 5.29743 52.2246 4.90012C52.7102 4.45866 53.2841 4.19379 53.9463 4.0172C54.2111 3.88477 54.5202 3.88477 54.785 3.88477Z" fill="#E32578"/>
</g>
<g id="Group_62">
<path id="Vector_61" d="M48.0749 29.4451C48.7371 29.401 49.311 29.6217 49.8849 29.9307C50.3263 30.1515 50.6795 30.5046 50.9885 30.9019C51.2975 31.2992 51.4741 31.7407 51.6066 32.1822C51.6507 32.4029 51.6949 32.6236 51.739 32.8444V33.1534C51.739 33.8597 51.5183 34.5219 51.121 35.0958C50.7678 35.6255 50.2822 36.0229 49.6642 36.2877C49.3551 36.4202 49.0461 36.5085 48.6929 36.5526C48.4722 36.5968 48.2073 36.5968 47.9866 36.5968C47.6334 36.5526 47.2803 36.5085 46.9271 36.376C46.6181 36.2436 46.3091 36.1111 46.0442 35.8904C45.8235 35.7138 45.5586 35.5373 45.382 35.2724C45.2496 35.0516 45.073 34.8751 44.9405 34.6543C44.764 34.3453 44.6315 34.0363 44.5874 33.6831C44.4991 33.3741 44.4991 33.0651 44.4991 32.7561C44.4991 32.3587 44.5874 32.0056 44.7198 31.6524C44.8964 31.1668 45.2054 30.7695 45.5586 30.4163C46 30.019 46.4856 29.71 47.1037 29.5776C47.2361 29.5334 47.4127 29.5334 47.5451 29.4893C47.7659 29.401 47.8983 29.4451 48.0749 29.4451Z" fill="#00AAD0"/>
</g>
<g id="Group_63">
<path id="Vector_62" d="M32.5355 31.1227C32.1382 31.1668 31.7409 31.0344 31.3877 30.8578C31.167 30.7695 30.9904 30.6371 30.8138 30.4605C30.549 30.1956 30.2841 29.9307 30.1517 29.6217C30.0192 29.3127 29.8868 28.9595 29.8868 28.6064C29.8868 28.2973 29.8868 27.9883 30.0192 27.6793C30.1958 27.282 30.4165 26.8847 30.7697 26.6198C31.0346 26.4432 31.2994 26.2666 31.5643 26.1783C31.8733 26.0459 32.2265 26.0459 32.5797 26.0459C32.8887 26.09 33.1977 26.1342 33.4626 26.2666C33.8158 26.4432 34.1689 26.7081 34.4338 27.0171C34.6987 27.3261 34.8311 27.6793 34.9194 28.0766C34.9636 28.3856 35.0077 28.6505 34.9194 28.9595C34.8753 29.2685 34.787 29.5776 34.6104 29.8424C34.4338 30.1956 34.1248 30.5046 33.7716 30.7254C33.595 30.8137 33.4185 30.9461 33.1977 30.9902C33.0211 31.1227 32.8004 31.1668 32.5355 31.1227Z" fill="#9C2B82"/>
</g>
<g id="Group_64">
<path id="Vector_63" d="M30.0193 17.0405C28.3859 17.0405 27.3264 15.9369 27.2822 14.7008C27.2822 13.9503 27.5471 13.3323 28.0769 12.8467C28.5183 12.4494 29.0039 12.2286 29.5778 12.2286C30.2841 12.1845 30.9022 12.4052 31.4319 12.935C31.9617 13.4647 32.1824 14.0828 32.1383 14.7891C32.0941 15.4513 31.8293 15.981 31.3436 16.4225C30.9022 16.8198 30.3724 16.9964 30.0193 17.0405Z" fill="#3DAB63"/>
</g>
<path id="Vector_64" d="M56.7274 19.6448C57.3896 19.6007 57.9635 19.8656 58.405 20.307C58.8023 20.7043 59.023 21.2341 59.0672 21.808C59.1113 22.5143 58.8464 23.0882 58.3608 23.5738C57.9635 23.9711 57.4779 24.1919 56.904 24.236C56.4626 24.2801 56.0652 24.1919 55.6679 23.9711C55.2706 23.7504 54.9616 23.4855 54.7409 23.1324C54.5201 22.7792 54.3877 22.3377 54.3877 21.9404C54.3877 21.5431 54.476 21.1458 54.6967 20.7926C54.9174 20.4395 55.1823 20.1304 55.5796 19.9097C55.9328 19.689 56.3301 19.6007 56.7274 19.6448Z" fill="#ED962E"/>
</g>
</svg>
